<svg id="Group_40053" data-name="Group 40053" xmlns="http://www.w3.org/2000/svg" width="175.904" height="175.905" viewBox="0 0 175.904 175.905">
  <circle id="Ellipse_4" data-name="Ellipse 4" cx="64.386" cy="64.386" r="64.386" transform="translate(64.386) rotate(30)" fill="#ffe0d4"/>
  <text id="L" transform="translate(111.099 42.586) rotate(30)" font-size="10" font-family="Roboto-Regular, Roboto"><tspan x="0.534" y="10">L</tspan></text>
  <text id="I" transform="matrix(0.744, 0.67, -0.669, 0.743, 120.956, 49.145)" font-size="10" font-family="Roboto-Regular, Roboto"><tspan x="0.399" y="10">I</tspan></text>
  <text id="V" transform="matrix(0.588, 0.809, -0.809, 0.588, 127.327, 55.405)" font-size="10" font-family="Roboto-Regular, Roboto"><tspan x="0.628" y="10">V</tspan></text>
  <text id="E" transform="translate(133.527 64.821) rotate(65.92)" font-size="10" font-family="Roboto-Regular, Roboto"><tspan x="0.386" y="10">E</tspan></text>
  <text id="Text" transform="translate(138.001 77.662) rotate(77.917)" font-size="10" font-family="Roboto-Regular, Roboto"><tspan x="0.637" y="10"> </tspan></text>
  <text id="A" transform="translate(139.108 84.764) rotate(89.927)" font-size="10" font-family="Roboto-Regular, Roboto"><tspan x="0.557" y="10">A</tspan></text>
  <text id="U" transform="matrix(-0.207, 0.978, -0.978, -0.209, 138.71, 95.469)" font-size="10" font-family="Roboto-Regular, Roboto"><tspan x="0.579" y="10">U</tspan></text>
  <text id="C" transform="matrix(-0.406, 0.913, -0.914, -0.407, 136.1, 105.863)" font-size="10" font-family="Roboto-Regular, Roboto"><tspan x="0.567" y="10">C</tspan></text>
  <text id="T" transform="matrix(-0.588, 0.809, -0.809, -0.588, 131.389, 115.494)" font-size="10" font-family="Roboto-Regular, Roboto"><tspan x="0.544" y="10">T</tspan></text>
  <text id="I-2" data-name="I" transform="matrix(-0.744, 0.67, -0.668, -0.743, 123.476, 125.118)" font-size="10" font-family="Roboto-Regular, Roboto"><tspan x="0.404" y="10">I</tspan></text>
  <text id="O" transform="matrix(-0.866, 0.501, -0.499, -0.866, 117.085, 130.53)" font-size="10" font-family="Roboto-Regular, Roboto"><tspan x="0.671" y="10">O</tspan></text>
  <text id="N" transform="matrix(-0.952, 0.308, -0.308, -0.952, 107.679, 135.674)" font-size="10" font-family="Roboto-Regular, Roboto"><tspan x="0.546" y="10">N</tspan></text>
  <text id="Text-2" data-name="Text" transform="matrix(-0.995, 0.103, -0.103, -0.995, 93.331, 139.185)" font-size="10" font-family="Roboto-Regular, Roboto"><tspan x="0.637" y="10"> </tspan></text>
  <text id="_" data-name="•" transform="translate(84.41 139.38) rotate(-173.939)" font-size="10" font-family="Roboto-Regular, Roboto"><tspan x="0.368" y="10">•</tspan></text>
  <text id="Text-3" data-name="Text" transform="matrix(-0.951, -0.308, 0.31, -0.951, 72.225, 136.99)" font-size="10" font-family="Roboto-Regular, Roboto"><tspan x="0" y="10"> </tspan></text>
  <text id="L-2" data-name="L" transform="translate(65.021 134.122) rotate(-150)" font-size="10" font-family="Roboto-Regular, Roboto"><tspan x="0.534" y="10">L</tspan></text>
  <text id="I-3" data-name="I" transform="matrix(-0.743, -0.67, 0.669, -0.744, 55.163, 127.563)" font-size="10" font-family="Roboto-Regular, Roboto"><tspan x="0.399" y="10">I</tspan></text>
  <text id="V-2" data-name="V" transform="matrix(-0.588, -0.809, 0.809, -0.588, 48.792, 121.302)" font-size="10" font-family="Roboto-Regular, Roboto"><tspan x="0.628" y="10">V</tspan></text>
  <text id="E-2" data-name="E" transform="translate(42.592 111.887) rotate(-113.947)" font-size="10" font-family="Roboto-Regular, Roboto"><tspan x="0.383" y="10">E</tspan></text>
  <text id="Text-4" data-name="Text" transform="translate(38.119 99.045) rotate(-101.924)" font-size="10" font-family="Roboto-Regular, Roboto"><tspan x="0.637" y="10"> </tspan></text>
  <text id="A-2" data-name="A" transform="translate(37.011 91.944) rotate(-89.927)" font-size="10" font-family="Roboto-Regular, Roboto"><tspan x="0.557" y="10">A</tspan></text>
  <text id="U-2" data-name="U" transform="matrix(0.209, -0.978, 0.978, 0.207, 37.409, 81.238)" font-size="10" font-family="Roboto-Regular, Roboto"><tspan x="0.579" y="10">U</tspan></text>
  <text id="C-2" data-name="C" transform="matrix(0.407, -0.913, 0.914, 0.406, 40.019, 70.844)" font-size="10" font-family="Roboto-Regular, Roboto"><tspan x="0.567" y="10">C</tspan></text>
  <text id="T-2" data-name="T" transform="matrix(0.588, -0.809, 0.809, 0.588, 44.73, 61.214)" font-size="10" font-family="Roboto-Regular, Roboto"><tspan x="0.544" y="10">T</tspan></text>
  <text id="I-4" data-name="I" transform="matrix(0.743, -0.67, 0.668, 0.744, 52.644, 51.59)" font-size="10" font-family="Roboto-Regular, Roboto"><tspan x="0.404" y="10">I</tspan></text>
  <text id="O-2" data-name="O" transform="matrix(0.866, -0.499, 0.499, 0.866, 59.034, 46.177)" font-size="10" font-family="Roboto-Regular, Roboto"><tspan x="0.671" y="10">O</tspan></text>
  <text id="N-2" data-name="N" transform="matrix(0.951, -0.308, 0.308, 0.951, 68.44, 41.033)" font-size="10" font-family="Roboto-Regular, Roboto"><tspan x="0.542" y="10">N</tspan></text>
  <text id="Text-5" data-name="Text" transform="translate(82.788 37.522) rotate(-5.922)" font-size="10" font-family="Roboto-Regular, Roboto"><tspan x="0.637" y="10"> </tspan></text>
  <text id="_2" data-name="•" transform="translate(91.709 37.327) rotate(6.062)" font-size="10" font-family="Roboto-Regular, Roboto"><tspan x="0.368" y="10">•</tspan></text>
  <text id="Text-6" data-name="Text" transform="matrix(0.951, 0.308, -0.31, 0.951, 103.894, 39.717)" font-size="10" font-family="Roboto-Regular, Roboto"><tspan x="0" y="10"> </tspan></text>
  <path id="Vector" d="M22.895,20.152,11.451,27.322,0,20.152,11.451,0ZM11.451,29.625,0,22.454,11.451,39.562,22.9,22.454,11.451,29.625Z" transform="translate(87.884 65.168) rotate(30)"/>
</svg>
