<svg xmlns="http://www.w3.org/2000/svg" width="196" height="154" viewBox="0 0 196 154">
  <g id="Group_2" data-name="Group 2" opacity="0.5">
    <circle id="Ellipse_5" data-name="Ellipse 5" cx="3.5" cy="3.5" r="3.5" fill="#f4f4f4"/>
    <circle id="Ellipse_15" data-name="Ellipse 15" cx="3.5" cy="3.5" r="3.5" transform="translate(0 21)" fill="#f4f4f4"/>
    <circle id="Ellipse_25" data-name="Ellipse 25" cx="3.5" cy="3.5" r="3.5" transform="translate(0 42)" fill="#f4f4f4"/>
    <circle id="Ellipse_35" data-name="Ellipse 35" cx="3.5" cy="3.5" r="3.5" transform="translate(0 63)" fill="#f4f4f4"/>
    <circle id="Ellipse_45" data-name="Ellipse 45" cx="3.5" cy="3.5" r="3.5" transform="translate(0 84)" fill="#f4f4f4"/>
    <circle id="Ellipse_55" data-name="Ellipse 55" cx="3.5" cy="3.5" r="3.5" transform="translate(0 105)" fill="#f4f4f4"/>
    <circle id="Ellipse_65" data-name="Ellipse 65" cx="3.5" cy="3.5" r="3.5" transform="translate(0 126)" fill="#f4f4f4"/>
    <circle id="Ellipse_75" data-name="Ellipse 75" cx="3.5" cy="3.5" r="3.5" transform="translate(0 147)" fill="#f4f4f4"/>
    <circle id="Ellipse_6" data-name="Ellipse 6" cx="3.5" cy="3.5" r="3.5" transform="translate(21)" fill="#f4f4f4"/>
    <circle id="Ellipse_16" data-name="Ellipse 16" cx="3.5" cy="3.5" r="3.5" transform="translate(21 21)" fill="#f4f4f4"/>
    <circle id="Ellipse_26" data-name="Ellipse 26" cx="3.5" cy="3.5" r="3.5" transform="translate(21 42)" fill="#f4f4f4"/>
    <circle id="Ellipse_36" data-name="Ellipse 36" cx="3.5" cy="3.5" r="3.5" transform="translate(21 63)" fill="#f4f4f4"/>
    <circle id="Ellipse_46" data-name="Ellipse 46" cx="3.5" cy="3.5" r="3.5" transform="translate(21 84)" fill="#f4f4f4"/>
    <circle id="Ellipse_56" data-name="Ellipse 56" cx="3.5" cy="3.5" r="3.5" transform="translate(21 105)" fill="#f4f4f4"/>
    <circle id="Ellipse_66" data-name="Ellipse 66" cx="3.5" cy="3.5" r="3.5" transform="translate(21 126)" fill="#f4f4f4"/>
    <circle id="Ellipse_76" data-name="Ellipse 76" cx="3.5" cy="3.5" r="3.5" transform="translate(21 147)" fill="#f4f4f4"/>
    <circle id="Ellipse_7" data-name="Ellipse 7" cx="3.5" cy="3.5" r="3.5" transform="translate(42)" fill="#f4f4f4"/>
    <circle id="Ellipse_17" data-name="Ellipse 17" cx="3.5" cy="3.5" r="3.5" transform="translate(42 21)" fill="#f4f4f4"/>
    <circle id="Ellipse_27" data-name="Ellipse 27" cx="3.5" cy="3.5" r="3.5" transform="translate(42 42)" fill="#f4f4f4"/>
    <circle id="Ellipse_37" data-name="Ellipse 37" cx="3.5" cy="3.5" r="3.5" transform="translate(42 63)" fill="#f4f4f4"/>
    <circle id="Ellipse_47" data-name="Ellipse 47" cx="3.5" cy="3.5" r="3.5" transform="translate(42 84)" fill="#f4f4f4"/>
    <circle id="Ellipse_57" data-name="Ellipse 57" cx="3.5" cy="3.5" r="3.5" transform="translate(42 105)" fill="#f4f4f4"/>
    <circle id="Ellipse_67" data-name="Ellipse 67" cx="3.5" cy="3.5" r="3.5" transform="translate(42 126)" fill="#f4f4f4"/>
    <circle id="Ellipse_77" data-name="Ellipse 77" cx="3.5" cy="3.5" r="3.5" transform="translate(42 147)" fill="#f4f4f4"/>
    <circle id="Ellipse_8" data-name="Ellipse 8" cx="3.5" cy="3.5" r="3.5" transform="translate(63)" fill="#f4f4f4"/>
    <circle id="Ellipse_18" data-name="Ellipse 18" cx="3.5" cy="3.5" r="3.5" transform="translate(63 21)" fill="#f4f4f4"/>
    <circle id="Ellipse_28" data-name="Ellipse 28" cx="3.5" cy="3.5" r="3.5" transform="translate(63 42)" fill="#f4f4f4"/>
    <circle id="Ellipse_38" data-name="Ellipse 38" cx="3.5" cy="3.5" r="3.5" transform="translate(63 63)" fill="#f4f4f4"/>
    <circle id="Ellipse_48" data-name="Ellipse 48" cx="3.5" cy="3.5" r="3.5" transform="translate(63 84)" fill="#f4f4f4"/>
    <circle id="Ellipse_58" data-name="Ellipse 58" cx="3.5" cy="3.5" r="3.5" transform="translate(63 105)" fill="#f4f4f4"/>
    <circle id="Ellipse_68" data-name="Ellipse 68" cx="3.5" cy="3.5" r="3.5" transform="translate(63 126)" fill="#f4f4f4"/>
    <circle id="Ellipse_78" data-name="Ellipse 78" cx="3.5" cy="3.5" r="3.5" transform="translate(63 147)" fill="#f4f4f4"/>
    <circle id="Ellipse_9" data-name="Ellipse 9" cx="3.5" cy="3.5" r="3.5" transform="translate(84)" fill="#f4f4f4"/>
    <circle id="Ellipse_19" data-name="Ellipse 19" cx="3.5" cy="3.5" r="3.5" transform="translate(84 21)" fill="#f4f4f4"/>
    <circle id="Ellipse_29" data-name="Ellipse 29" cx="3.5" cy="3.5" r="3.5" transform="translate(84 42)" fill="#f4f4f4"/>
    <circle id="Ellipse_39" data-name="Ellipse 39" cx="3.5" cy="3.5" r="3.5" transform="translate(84 63)" fill="#f4f4f4"/>
    <circle id="Ellipse_49" data-name="Ellipse 49" cx="3.5" cy="3.5" r="3.5" transform="translate(84 84)" fill="#f4f4f4"/>
    <circle id="Ellipse_59" data-name="Ellipse 59" cx="3.5" cy="3.5" r="3.5" transform="translate(84 105)" fill="#f4f4f4"/>
    <circle id="Ellipse_69" data-name="Ellipse 69" cx="3.5" cy="3.5" r="3.5" transform="translate(84 126)" fill="#f4f4f4"/>
    <circle id="Ellipse_79" data-name="Ellipse 79" cx="3.5" cy="3.5" r="3.5" transform="translate(84 147)" fill="#f4f4f4"/>
  </g>
</svg>
