<svg id="Group_39742" data-name="Group 39742" xmlns="http://www.w3.org/2000/svg" width="32.121" height="32.121" viewBox="0 0 32.121 32.121">
  <g id="question" transform="translate(0 0)">
    <g id="Group_39737" data-name="Group 39737">
      <g id="Group_39736" data-name="Group 39736" transform="translate(0 0)">
        <path id="Path_78041" data-name="Path 78041" d="M32,29.087,29.792,22.67A15.693,15.693,0,1,0,15.71,31.414h.025a15.756,15.756,0,0,0,6.938-1.625l6.417,2.205a2.3,2.3,0,0,0,.75.126A2.29,2.29,0,0,0,32,29.087ZM30.1,30.1a.368.368,0,0,1-.4.091l-6.8-2.337a.952.952,0,0,0-.755.059,13.8,13.8,0,1,1,5.764-5.764.952.952,0,0,0-.059.755l2.337,6.8A.368.368,0,0,1,30.1,30.1Z" transform="translate(-0.003 0)" fill="#fff"/>
      </g>
    </g>
    <g id="Group_39739" data-name="Group 39739" transform="translate(14.6 22.757)">
      <g id="Group_39738" data-name="Group 39738">
        <path id="Path_78042" data-name="Path 78042" d="M233.672,362.748a.952.952,0,1,0,.952.952A.963.963,0,0,0,233.672,362.748Z" transform="translate(-232.719 -362.748)" fill="#fff"/>
      </g>
    </g>
    <g id="Group_39741" data-name="Group 39741" transform="translate(10.815 8.01)">
      <g id="Group_39740" data-name="Group 39740">
        <path id="Path_78043" data-name="Path 78043" d="M177.133,127.674a4.743,4.743,0,0,0-4.738,4.737.952.952,0,0,0,1.9,0,2.833,2.833,0,1,1,2.833,2.833.952.952,0,0,0-.952.952v3.884a.952.952,0,1,0,1.9,0v-3.028a4.738,4.738,0,0,0-.952-9.379Z" transform="translate(-172.395 -127.674)" fill="#fff"/>
      </g>
    </g>
  </g>
</svg>
