<svg xmlns="http://www.w3.org/2000/svg" width="18.537" height="23.047" viewBox="0 0 18.537 23.047">
  <g id="svgexport-7_14_" data-name="svgexport-7 (14)" transform="translate(-5.75 -2.75)">
    <path id="Path_78164" data-name="Path 78164" d="M22.53,10.44a.752.752,0,0,0-.747-.676h-1.5v-1.5a5.261,5.261,0,1,0-10.522,0v1.5h-1.5a.752.752,0,0,0-.747.676L6,24.72a.752.752,0,0,0,.747.827H23.286a.752.752,0,0,0,.747-.827ZM11.261,8.261a3.758,3.758,0,0,1,7.516,0v1.5H11.261ZM7.586,24.044,8.931,11.267H21.107l1.345,12.777Z" transform="translate(0)" fill="#fff" stroke="#24274d" stroke-width="0.5"/>
    <path id="Path_78165" data-name="Path 78165" d="M20.4,18.219l-4.73,4.73-2.391-2.394a.752.752,0,1,0-1.063,1.063l2.923,2.923a.752.752,0,0,0,1.063,0l5.261-5.261A.752.752,0,1,0,20.4,18.216Z" transform="translate(-1.49 -3.726)" fill="#fff" stroke="#24274d" stroke-width="0.5"/>
  </g>
</svg>
