<svg xmlns="http://www.w3.org/2000/svg" width="22.095" height="22.372" viewBox="0 0 22.095 22.372">
  <g id="svgexport-6_58_" data-name="svgexport-6 (58)" transform="translate(-1.918 -1.51)">
    <path id="Path_78166" data-name="Path 78166" d="M39.056,33.6V33H37.92v.6a1.7,1.7,0,0,0,.331,3.375h.474a.57.57,0,1,1,0,1.136h-.474a.594.594,0,0,1-.615-.568v-.227H36.5v.227a1.718,1.718,0,0,0,1.42,1.671v.033h1.136v-.033a1.7,1.7,0,0,0-.331-3.375h-.474a.57.57,0,1,1,0-1.136h.474a.594.594,0,0,1,.615.568V35.5h1.136v-.227A1.718,1.718,0,0,0,39.056,33.6Z" transform="translate(-25.52 -23.711)" fill="#fff" stroke="#fff" stroke-width="0.1"/>
    <path id="Path_78167" data-name="Path 78167" d="M42.785,35.892a5.892,5.892,0,1,0-5.892,5.892A5.892,5.892,0,0,0,42.785,35.892Zm-5.892,4.583a4.583,4.583,0,1,1,4.583-4.583A4.583,4.583,0,0,1,36.892,40.475Z" transform="translate(-23.925 -23.195)" fill="#fff"/>
    <path id="Path_78168" data-name="Path 78168" d="M32.075,2.411v.73a10.246,10.246,0,0,1,5.434,18.936l-.531-.909a.365.365,0,0,0-.643.024l-1.119,2.293a.365.365,0,0,0,.306.524l2.547.151h.022a.365.365,0,0,0,.315-.549l-.529-.9a10.976,10.976,0,0,0-5.8-20.3Zm4.037,20.9.579-1.188.74,1.266Z" transform="translate(-19.107 -0.539)" fill="#fff" stroke="#fff" stroke-width="0.1"/>
    <path id="Path_78169" data-name="Path 78169" d="M2.718,12.852A10.31,10.31,0,0,1,8.339,3.711l.406.968a.364.364,0,0,0,.3.222l.034,0a.366.366,0,0,0,.3-.163L10.8,2.612a.365.365,0,0,0-.235-.56L8.055,1.569a.365.365,0,0,0-.406.5l.406.967a10.977,10.977,0,0,0,4.913,20.8V23.1a10.24,10.24,0,0,1-10.25-10.25ZM9.885,2.665l-.73,1.1L8.587,2.415Z" transform="translate(0 0)" fill="#fff" stroke="#fff" stroke-width="0.1"/>
  </g>
</svg>
