<svg xmlns="http://www.w3.org/2000/svg" width="37.892" height="37.892" viewBox="0 0 37.892 37.892">
  <g id="Group_40063" data-name="Group 40063" transform="translate(1 1)">
    <path id="Path_11" data-name="Path 11" d="M33.162,12.973V6.243A2.243,2.243,0,0,0,30.919,4H8.486a4.486,4.486,0,0,0,0,8.973H35.405a2.243,2.243,0,0,1,2.243,2.243v6.73m0,8.973v6.73a2.243,2.243,0,0,1-2.243,2.243H8.486A4.486,4.486,0,0,1,4,35.405V8.486" transform="translate(-4 -4)" fill="none" stroke="#fff" stroke-linecap="round" stroke-linejoin="round" stroke-width="2"/>
    <path id="Path_12" data-name="Path 12" d="M27.459,12v8.973H18.486a4.486,4.486,0,0,1,0-8.973h8.973" transform="translate(8.432 5.946)" fill="none" stroke="#fff" stroke-linecap="round" stroke-linejoin="round" stroke-width="2"/>
  </g>
</svg>
 