<svg xmlns="http://www.w3.org/2000/svg" width="38.233" height="37.892" viewBox="0 0 38.233 37.892">
  <g id="Group_40065" data-name="Group 40065" transform="translate(1 1)">
    <line id="Line_4" data-name="Line 4" x2="35.538" transform="translate(0 35.521)" fill="none" stroke="#fff" stroke-linecap="round" stroke-linejoin="round" stroke-width="2"/>
    <path id="Path_14" data-name="Path 14" d="M3,10.976V12.97a5.982,5.982,0,1,0,11.964,0V10.976m0,1.994a5.982,5.982,0,1,0,11.964,0V10.976m0,1.994a5.982,5.982,0,1,0,11.964,0V10.976H3L6.988,3H34.9l3.988,7.976" transform="translate(-3 -3)" fill="none" stroke="#fff" stroke-linecap="round" stroke-linejoin="round" stroke-width="2"/>
    <line id="Line_5" data-name="Line 5" y1="20.239" transform="translate(3.988 15.653)" fill="none" stroke="#fff" stroke-linecap="round" stroke-linejoin="round" stroke-width="2"/>
    <line id="Line_6" data-name="Line 6" y1="20.239" transform="translate(31.904 15.653)" fill="none" stroke="#fff" stroke-linecap="round" stroke-linejoin="round" stroke-width="2"/>
    <path id="Path_15" data-name="Path 15" d="M9,26.964V18.988A3.988,3.988,0,0,1,12.988,15h3.988a3.988,3.988,0,0,1,3.988,3.988v7.976" transform="translate(2.964 8.928)" fill="none" stroke="#fff" stroke-linecap="round" stroke-linejoin="round" stroke-width="2"/>
  </g>
</svg>
