<svg xmlns="http://www.w3.org/2000/svg" width="40.073" height="40.073" viewBox="0 0 40.073 40.073">
  <g id="Group_40067" data-name="Group 40067" transform="translate(1 1)">
    <line id="Line_3" data-name="Line 3" y1="12.693" x2="12.693" transform="translate(12.669 12.669)" fill="none" stroke="#fff" stroke-linecap="round" stroke-linejoin="round" stroke-width="2"/>
    <circle id="Ellipse_99" data-name="Ellipse 99" cx="1.058" cy="1.058" r="1.058" transform="translate(12.669 12.669)" fill="#ee7a27" stroke="#fff" stroke-linecap="round" stroke-linejoin="round" stroke-width="2"/>
    <circle id="Ellipse_100" data-name="Ellipse 100" cx="1.058" cy="1.058" r="1.058" transform="translate(23.247 23.247)" fill="#ee7a27" stroke="#fff" stroke-linecap="round" stroke-linejoin="round" stroke-width="2"/>
    <path id="Path_9" data-name="Path 9" d="M7.218,11.872a4.654,4.654,0,0,1,4.654-4.654h2.115a4.654,4.654,0,0,0,3.279-1.354l1.481-1.481a4.654,4.654,0,0,1,6.6,0l1.481,1.481a4.654,4.654,0,0,0,3.279,1.354h2.115a4.654,4.654,0,0,1,4.654,4.654v2.115a4.654,4.654,0,0,0,1.354,3.279l1.481,1.481a4.654,4.654,0,0,1,0,6.6l-1.481,1.481a4.654,4.654,0,0,0-1.354,3.279v2.115a4.654,4.654,0,0,1-4.654,4.654H30.108a4.654,4.654,0,0,0-3.279,1.354l-1.481,1.481a4.654,4.654,0,0,1-6.6,0l-1.481-1.481a4.654,4.654,0,0,0-3.279-1.354H11.872a4.654,4.654,0,0,1-4.654-4.654V30.108a4.654,4.654,0,0,0-1.354-3.279L4.384,25.348a4.654,4.654,0,0,1,0-6.6l1.481-1.481a4.654,4.654,0,0,0,1.354-3.279V11.872" transform="translate(-3.011 -3.011)" fill="none" stroke="#fff" stroke-linecap="round" stroke-linejoin="round" stroke-width="2"/>
  </g>
</svg>
