<svg xmlns="http://www.w3.org/2000/svg" width="18.299" height="18.299" viewBox="0 0 18.299 18.299">
  <g id="svgexport-6_59_" data-name="svgexport-6 (59)" transform="translate(24.299 24.299) rotate(180)">
    <g id="Group_40409" data-name="Group 40409" transform="translate(6 6)">
      <g id="LINE_201_" transform="translate(12.163 3.718)">
        <g id="Group_40401" data-name="Group 40401">
          <path id="Path_78170" data-name="Path 78170" d="M46,22.7a.7.7,0,0,1-.5-.206L40.77,17.767a.7.7,0,0,1,1-1L46.494,21.5a.7.7,0,0,1-.5,1.2Z" transform="translate(-40.564 -16.565)" fill="#fff"/>
        </g>
      </g>
      <g id="LINE_202_" transform="translate(12.163 8.446)">
        <g id="Group_40402" data-name="Group 40402">
          <path id="Path_78171" data-name="Path 78171" d="M41.268,36.136a.7.7,0,0,1-.5-1.2L45.5,30.206a.7.7,0,0,1,1,1l-4.728,4.728A.7.7,0,0,1,41.268,36.136Z" transform="translate(-40.564 -30)" fill="#fff"/>
        </g>
      </g>
      <g id="LINE_203_" transform="translate(3.519 8.446)">
        <g id="Group_40403" data-name="Group 40403">
          <path id="Path_78172" data-name="Path 78172" d="M30.076,31.408H16.7A.7.7,0,1,1,16.7,30H30.076a.7.7,0,0,1,0,1.408Z" transform="translate(-16 -30)" fill="#fff"/>
        </g>
      </g>
      <g id="ARC_121_" transform="translate(0 16.187)">
        <g id="Group_40404" data-name="Group 40404">
          <path id="Path_78173" data-name="Path 78173" d="M7.408,54.111A1.409,1.409,0,0,1,6,52.7a.7.7,0,1,1,1.408,0h0a.7.7,0,1,1,0,1.407Z" transform="translate(-6 -52)" fill="#fff"/>
        </g>
      </g>
      <g id="LINE_204_" transform="translate(0.704 16.891)">
        <g id="Group_40405" data-name="Group 40405">
          <path id="Path_78174" data-name="Path 78174" d="M13.63,55.408H8.7A.7.7,0,0,1,8.7,54H13.63a.7.7,0,0,1,0,1.408Z" transform="translate(-8 -54)" fill="#fff"/>
        </g>
      </g>
      <g id="LINE_205_" transform="translate(0 0.704)">
        <g id="Group_40406" data-name="Group 40406">
          <path id="Path_78175" data-name="Path 78175" d="M6.7,24.891a.7.7,0,0,1-.7-.7V8.7a.7.7,0,0,1,1.408,0V24.187A.7.7,0,0,1,6.7,24.891Z" transform="translate(-6 -8)" fill="#fff"/>
        </g>
      </g>
      <g id="ARC_122_">
        <g id="Group_40407" data-name="Group 40407">
          <path id="Path_78176" data-name="Path 78176" d="M6.7,8.111a.7.7,0,0,1-.7-.7A1.409,1.409,0,0,1,7.408,6a.7.7,0,0,1,0,1.408h0A.7.7,0,0,1,6.7,8.111Z" transform="translate(-6 -6)" fill="#fff"/>
        </g>
      </g>
      <g id="LINE_206_" transform="translate(0.704)">
        <g id="Group_40408" data-name="Group 40408">
          <path id="Path_78177" data-name="Path 78177" d="M13.63,7.408H8.7A.7.7,0,0,1,8.7,6H13.63a.7.7,0,0,1,0,1.408Z" transform="translate(-8 -6)" fill="#fff"/>
        </g>
      </g>
    </g>
  </g>
</svg>
